<?xml version="1.0" encoding="UTF-8" standalone="no"?>
<!-- Created with Inkscape (http://www.inkscape.org/) -->

<svg
   width="676.68073"
   height="437.81143"
   viewBox="0 0 179.03844 115.83761"
   version="1.1"
   id="svg1"
   xml:space="preserve"
   xmlns="http://www.w3.org/2000/svg"
   xmlns:svg="http://www.w3.org/2000/svg"
   xmlns:rdf="http://www.w3.org/1999/02/22-rdf-syntax-ns#"
   xmlns:cc="http://creativecommons.org/ns#"
   xmlns:dc="http://purl.org/dc/elements/1.1/"><title
     id="title1">TechStream Logo</title><defs
     id="defs1" /><g
     id="layer4"
     transform="translate(-19.188339,-99.000258)"
     style="fill:#7fff2a;stroke-width:0.2;stroke-dasharray:none"><path
       style="fill:#000000;stroke:#000000;stroke-width:0.0529167;stroke-dasharray:none;stroke-opacity:1"
       d="m 69.625903,103.98486 71.555537,40.50458 32.2807,17.98496 c 0,0 2.45701,1.35484 0.52199,3.25914 l -17.69163,10.21262 -14.4973,7.90901 -17.10804,9.53689 -18.24448,10.45833 -8.108663,4.68398 c 0,0 -1.620657,1.14475 -2.849084,-0.42673 -0.113864,-0.14566 -0.158966,-0.31829 -0.264487,-0.5137 0,0 -0.06632,-0.43958 -0.06679,-0.66118 -0.0063,-2.96716 0.0938,-8.80994 0.101509,-9.25477 3.09e-4,-0.0178 0.004,-0.0281 0.004,-0.0281 0,0 0.0026,-0.009 0.01387,-0.0266 0.188417,-0.29498 1.885888,-2.79831 3.922245,-0.6248 0.01494,0.016 0.0059,0.008 0.02093,0.0249 0,0 0.02286,0.0653 0.02237,0.0843 l -0.08186,3.18936 -0.0023,0.0906 c 0,0 0.08628,0.39318 0.620033,0.74687 0.533757,0.3537 1.337607,0.38585 1.337607,0.38585 l 0.97106,-0.28939 3.4855,-1.9421 18.56204,-10.49769 26.49341,-14.64238 14.05473,-8.1537 c 0,0 0.43994,-0.21179 1.0612,-1.14845 0.62125,-0.93666 -1.07047,-2.05492 -1.07047,-2.05492 l -8.51598,-4.97004 -12.55891,-6.90071 -11.66048,-6.93895 -10.61868,-5.68687 -13.96391,-8.08587 -17.729664,-9.96876 -16.697427,-9.31883 -6.623536,-3.77532 c 0,0 -0.793295,-0.63081 -1.892438,-1.18516 -1.099144,-0.55435 -1.768188,0.88887 -1.768188,0.88887 l -0.114693,0.19116 -0.162061,0.3344 -0.03346,7.09585 -0.371904,89.25984 c 0,0 0.09164,1.53888 0.328682,2.2603 0.237039,0.72142 0.95846,1.06152 0.95846,1.06152 0,0 0.680197,0.45346 2.164264,-0.42255 1.484066,-0.87601 5.431107,-3.33809 5.431107,-3.33809 0,0 0.436021,-0.25434 0.690366,-0.49052 0.254346,-0.23618 0.218011,-0.6177 0.218011,-0.6177 l -0.0545,-22.23705 0.127173,-12.15407 0.07116,-34.98916 c 0,0 -0.01113,-0.51668 0.924923,-1.22282 0.936055,-0.70615 2.742478,0.41055 3.169451,1.26449 0.426973,0.85395 0.31484,1.00522 0.31484,1.00522 l -0.09712,25.68394 -0.07902,36.5614 -0.05268,1.4751 c 0,0 -0.02634,0.92193 0.790232,1.18535 0.816573,0.26341 0.895596,0.31609 1.97558,0.15804 1.079984,-0.15804 16.226096,-9.11401 16.226096,-9.11401 l 41.381206,-23.13745 c 0,0 2.03219,-1.07185 2.24199,-1.79447 0.20979,-0.72262 0.32634,-1.53848 -1.16552,-2.19116 -1.49185,-0.65269 -35.30709,-20.07601 -35.30709,-20.07601 l -0.80925,-0.37748 c 0,0 -1.546094,-0.62526 -1.716619,1.15957 -0.170525,1.78483 -0.309922,3.62698 -0.309922,3.62698 0,0 -0.351984,1.34927 0.684411,2.20967 1.0364,0.86041 24.13045,13.72737 24.13045,13.72737 0,0 0.61034,0.30296 1.02645,0.69482 0.2382,0.22432 0.31698,0.46408 0.42377,0.72748 0.29331,0.72352 -5.16561,4.20944 -5.16561,4.20944 l -34.522003,19.49318 c 0,0 -0.0743,0.0295 -0.162499,0.0929 -0.04068,0.0293 -0.09242,0.0577 -0.147857,0.0935 -0.08099,0.0523 -0.182745,0.0965 -0.289108,0.15089 -0.627466,0.32082 -1.627169,0.56985 -2.267541,-0.71089 l -0.07875,-45.34028 c 0,0 0.170565,-0.79253 0.582007,-1.28042 0.396451,-0.47012 1.455176,0.0539 2.035128,0.37051 9.346509,5.10219 7.199386,3.85874 7.199386,3.85874 0,0 0.698409,0.58201 1.319216,0.27161 0.620808,-0.31041 0.874868,-0.4676 0.970012,-2.36683 0.08336,-1.66409 0.06002,-3.0707 0.06002,-3.0707 0,0 0.409829,-1.09898 -2.543245,-2.59417 -2.905499,-1.47111 -26.384326,-14.62779 -26.384326,-14.62779 0,0 -1.202815,-0.388 -0.465606,-3.91884 0.06236,-0.2987 0.549007,-0.47855 0.836994,-0.554 1.180361,-0.30925 4.543477,1.80601 8.330994,4.00964 6.211936,3.6142 14.417366,8.78826 21.433984,12.09798 l 50.258214,28.2351 c 0,0 2.01444,1.23882 0.60641,2.60024 -1.40805,1.36142 -27.48204,15.72883 -27.48204,15.72883 l -58.496449,33.11267 c 0,0 -1.877471,1.47982 -2.752036,-0.28791 L 58.363,100.47212 c 0,0 0.376077,-2.249448 2.550049,-1.13595 2.173973,1.1135 8.712854,4.64869 8.712854,4.64869 z"
       id="path5" /></g><metadata
     id="metadata1"><rdf:RDF><cc:Work
         rdf:about=""><dc:title>TechStream Logo</dc:title><dc:date>28/07/2025</dc:date><dc:creator><cc:Agent><dc:title>Niranjan Vasudevan</dc:title></cc:Agent></dc:creator></cc:Work></rdf:RDF></metadata></svg>
